<svg id="Group_3074" data-name="Group 3074" xmlns="http://www.w3.org/2000/svg" width="25.141" height="25.141" viewBox="0 0 25.141 25.141">
  <path id="Path_3170" data-name="Path 3170" d="M8.927,0a8.8,8.8,0,0,1,8.85,8.85A8.983,8.983,0,0,1,8.85,17.777,8.8,8.8,0,0,1,0,8.927,8.983,8.983,0,0,1,8.927,0Z" transform="translate(0 12.57) rotate(-45)" fill="#29d37e"/>
  <g id="Group_2960" data-name="Group 2960" transform="translate(6.971 9.833)">
    <path id="Path_2072" data-name="Path 2072" d="M3218.063,323.556l-2.326-3.24a.909.909,0,0,1,.208-1.268h0a.909.909,0,0,1,1.268.208l1.772,2.468,6.4-4.511a.909.909,0,0,1,1.267.219h0a.909.909,0,0,1-.219,1.267l-7.174,5.059A.86.86,0,0,1,3218.063,323.556Z" transform="translate(-3215.567 -317.047)" fill="#fff"/>
  </g>
</svg>
